<svg width="170" height="124" viewBox="0 0 170 124" fill="none" xmlns="http://www.w3.org/2000/svg">
<path d="M0.566071 36.1218C0.566071 30.5392 1.34302 25.7912 2.89693 21.8776C4.50839 17.9065 6.55149 14.6261 9.02623 12.0362C11.501 9.44639 14.2347 7.40329 17.2274 5.90693C20.2201 4.41058 23.1265 3.28831 25.9465 2.54014C28.8241 1.79196 31.3852 1.33154 33.6297 1.15889C35.9318 0.98623 37.6296 0.899902 38.7231 0.899902H41.6583C42.7517 0.899902 44.4495 0.98623 46.7516 1.15889C49.0537 1.33154 51.586 1.79196 54.3485 2.54014C57.1685 3.28831 60.0461 4.41058 62.9813 5.90693C65.974 7.40329 68.679 9.44639 71.0961 12.0362C73.5709 14.6261 75.5852 17.9065 77.1391 21.8776C78.693 25.7912 79.47 30.5392 79.47 36.1218V61.5886H61.7439V64.856H79.47V87.0554C79.47 92.8106 78.693 97.7025 77.1391 101.731C75.5852 105.76 73.5709 109.127 71.0961 111.832C68.679 114.479 65.974 116.551 62.9813 118.047C60.0461 119.544 57.1685 120.695 54.3485 121.5C51.586 122.248 49.0537 122.709 46.7516 122.882C44.4495 123.054 42.7517 123.141 41.6583 123.141H38.7231C37.6296 123.141 35.9318 123.054 33.6297 122.882C31.3852 122.709 28.8241 122.248 25.9465 121.5C23.1265 120.695 20.2201 119.544 17.2274 118.047C14.2347 116.551 11.501 114.479 9.02623 111.832C6.55149 109.127 4.50839 105.76 2.89693 101.731C1.34302 97.7025 0.566071 92.8106 0.566071 87.0554V64.856H19.8879V61.5886H0.566071V36.1218ZM28.8817 91.5444C29.0543 93.5587 29.6011 95.3429 30.5219 96.8968C31.2701 98.2205 32.3924 99.4578 33.8887 100.609C35.4426 101.702 37.5721 102.249 40.277 102.249C42.9244 102.249 44.9963 101.702 46.4926 100.609C47.989 99.4578 49.1112 98.2205 49.8594 96.8968C50.7227 95.3429 51.2695 93.5587 51.4997 91.5444V64.856H61.7439V61.5886H51.4997V33.1866C51.2695 31.1723 50.7227 29.3882 49.8594 27.8343C49.1112 26.5106 47.989 25.302 46.4926 24.2085C44.9963 23.0575 42.9244 22.4819 40.277 22.4819C37.5721 22.4819 35.4426 23.0575 33.8887 24.2085C32.3924 25.302 31.2701 26.5106 30.5219 27.8343C29.6011 29.3882 29.0543 31.1723 28.8817 33.1866V61.5886H19.8879V64.856H28.8817C28.8817 64.856 28.8817 65.6723 28.8817 66.1954C28.8817 76.0948 28.8817 91.5444 28.8817 91.5444Z" fill="url(#paint0_linear_817_313)"/>
<path d="M90.3839 36.1218C90.3839 30.5392 91.1609 25.7912 92.7148 21.8776C94.3263 17.9065 96.3694 14.6261 98.8441 12.0362C101.319 9.44639 104.053 7.40329 107.045 5.90693C110.038 4.41058 112.944 3.28831 115.764 2.54014C118.642 1.79196 121.203 1.33154 123.448 1.15889C125.75 0.98623 127.447 0.899902 128.541 0.899902H131.476C132.57 0.899902 134.267 0.98623 136.569 1.15889C138.872 1.33154 141.404 1.79196 144.166 2.54014C146.986 3.28831 149.864 4.41058 152.799 5.90693C155.792 7.40329 158.497 9.44639 160.914 12.0362C163.389 14.6261 165.403 17.9065 166.957 21.8776C168.511 25.7912 169.288 30.5392 169.288 36.1218V61.5886L154.497 61.5075V64.856H169.288V87.0554C169.288 92.8106 168.511 97.7025 166.957 101.731C165.403 105.76 163.389 109.127 160.914 111.832C158.497 114.479 155.792 116.551 152.799 118.047C149.864 119.544 146.986 120.695 144.166 121.5C141.404 122.248 138.872 122.709 136.569 122.882C134.267 123.054 132.57 123.141 131.476 123.141H128.541C127.447 123.141 125.75 123.054 123.448 122.882C121.203 122.709 118.642 122.248 115.764 121.5C112.944 120.695 110.038 119.544 107.045 118.047C104.053 116.551 101.319 114.479 98.8441 111.832C96.3694 109.127 94.3263 105.76 92.7148 101.731C91.1609 97.7025 90.3839 92.8106 90.3839 87.0554V64.856H99.5818V61.5886H90.3839V36.1218ZM118.7 91.5444C118.872 93.5587 119.419 95.3429 120.34 96.8968C121.088 98.2205 122.21 99.4578 123.707 100.609C125.26 101.702 127.39 102.249 130.095 102.249C132.742 102.249 134.814 101.702 136.311 100.609C137.807 99.4578 138.929 98.2205 139.677 96.8968C140.541 95.3429 141.087 93.5587 141.318 91.5444V64.856H154.497V61.5075H141.318V33.1866C141.087 31.1723 140.541 29.3882 139.677 27.8343C138.929 26.5106 137.807 25.302 136.311 24.2085C134.814 23.0575 132.742 22.4819 130.095 22.4819C127.39 22.4819 125.26 23.0575 123.707 24.2085C122.21 25.302 121.088 26.5106 120.34 27.8343C119.419 29.3882 118.872 31.1723 118.7 33.1866V61.5886H99.5818V64.856H118.7V91.5444Z" fill="url(#paint1_linear_817_313)"/>
<defs>
<linearGradient id="paint0_linear_817_313" x1="84.6257" y1="-51.2965" x2="84.6257" y2="170.286" gradientUnits="userSpaceOnUse">
<stop stop-color="white"/>
<stop offset="1" stop-color="#BCBCBC"/>
</linearGradient>
<linearGradient id="paint1_linear_817_313" x1="84.6257" y1="-51.2965" x2="84.6257" y2="170.286" gradientUnits="userSpaceOnUse">
<stop stop-color="white"/>
<stop offset="1" stop-color="#BCBCBC"/>
</linearGradient>
</defs>
</svg>
