<svg width="157" height="123" viewBox="0 0 157 123" fill="none" xmlns="http://www.w3.org/2000/svg">
<path d="M26.866 39.0719C24.9668 40.7985 22.8949 42.151 20.6504 43.1293C18.4059 44.1077 15.7585 44.5969 12.7082 44.5969C10.9816 44.5969 9.37018 44.2804 7.87383 43.6473C6.43503 42.9567 5.19766 42.0646 4.16172 40.9711C3.12578 39.8201 2.29128 38.5252 1.6582 37.0864C1.08268 35.6476 0.794922 34.1224 0.794922 32.511C0.794922 30.8995 1.05391 29.5183 1.57187 28.3672C2.08984 27.1586 2.80924 26.1227 3.73008 25.2594C4.65091 24.3961 5.71562 23.6192 6.92422 22.9286C8.13281 22.2379 9.42773 21.5185 10.809 20.7704C13.6866 18.8711 16.2477 16.9431 18.4922 14.9864C20.7943 13.0296 22.8374 11.2167 24.6215 9.5477C26.4056 7.82114 27.9595 6.35356 29.2832 5.14497C30.6069 3.93638 31.7579 3.10187 32.7363 2.64145C33.3118 2.35369 33.8298 2.12349 34.2902 1.95083C34.8082 1.72062 35.3262 1.57674 35.8441 1.51919C36.3621 1.40409 36.9376 1.34653 37.5707 1.34653C38.2038 1.28898 39.0095 1.26021 39.9879 1.26021C42.9806 1.26021 45.3402 1.8645 47.0668 3.0731C48.8509 4.28169 50.1746 5.86437 51.0379 7.82114C51.9587 9.72036 52.5342 11.8786 52.7644 14.2958C52.9947 16.7129 53.1098 19.1589 53.1098 21.6336V60.5075H37.3091V63.8559H53.1098V101.746C53.1098 104.278 52.9947 106.782 52.7644 109.257C52.5342 111.674 51.9587 113.832 51.0379 115.731C50.1746 117.631 48.8509 119.184 47.0668 120.393C45.3402 121.544 42.9806 122.12 39.9879 122.12C36.9376 122.12 34.5492 121.544 32.8227 120.393C31.0961 119.184 29.7724 117.631 28.8516 115.731C27.9883 113.832 27.4415 111.674 27.2113 109.257C26.9811 106.782 26.866 104.278 26.866 101.746V63.8559H37.3091V60.5075H26.866V39.0719Z" fill="url(#paint0_linear_817_317)"/>
<path d="M115.507 0.56958C122.01 0.56958 127.708 1.46164 132.6 3.24575C137.549 4.97231 141.664 7.41828 144.945 10.5836C148.225 13.6915 150.7 17.4323 152.369 21.8063C154.038 26.1227 154.872 30.8995 154.872 36.1368C154.872 39.5899 154.383 42.784 153.405 45.7192C152.484 48.6543 151.247 51.3305 149.693 53.7477C148.196 56.1649 146.276 58.5507 144.319 60.5075C142.645 60.5075 125.916 60.6171 122.24 60.5075C122.24 61.512 122.24 61.1772 122.24 63.8559C124.584 63.8559 137.664 63.8559 141.013 63.8559C136.178 67.4242 128.283 71.9342 122.24 74.1211C120.226 74.9269 118.212 75.9053 116.197 77.0563C114.241 78.1498 112.485 79.4447 110.931 80.9411C109.377 82.3799 108.111 84.0776 107.133 86.0344C106.154 87.9336 105.665 90.1206 105.665 92.5954V97.9477H135.707C138.125 97.9477 140.542 98.0628 142.959 98.293C145.376 98.5232 147.563 99.0412 149.52 99.8469C151.477 100.653 153.059 101.861 154.268 103.473C155.477 105.027 156.081 107.156 156.081 109.861C156.081 112.623 155.477 114.81 154.268 116.422C153.059 118.033 151.477 119.271 149.52 120.134C147.563 120.997 145.376 121.544 142.959 121.774C140.542 122.004 138.125 122.12 135.707 122.12H92.716C89.8384 122.12 87.45 121.659 85.5508 120.738C83.7092 119.76 82.2416 118.551 81.1481 117.113C80.0546 115.616 79.2776 113.976 78.8172 112.192C78.4144 110.35 78.2129 108.537 78.2129 106.753V92.9407C78.2129 88.5092 78.9323 84.3654 80.3711 80.5094C81.8675 76.5959 83.9394 73.0564 86.5868 69.8911C87.3689 68.9591 89.5455 66.1999 93.5636 63.8559C97.4925 63.8559 116.197 63.8559 122.24 63.8559C122.24 61.1772 122.24 61.8468 122.24 60.5075C118.913 60.5075 111.672 60.5265 97.1057 60.5075C100.847 57.9752 104.054 56.5678 108.6 54.7836C113.147 52.9995 116.773 51.3017 119.478 49.6903C122.183 48.0213 124.255 46.4098 125.693 44.8559C127.19 43.2444 128.168 41.633 128.629 40.0215C129.089 38.4101 129.319 36.7698 129.319 35.1008C129.319 32.1081 128.801 29.7485 127.765 28.0219C126.787 26.2954 125.55 25.0292 124.053 24.2235C122.614 23.3602 121.089 22.8422 119.478 22.6696C117.924 22.4394 116.6 22.3243 115.507 22.3243C112.629 22.3243 110.327 22.7559 108.6 23.6192C106.874 24.4249 105.55 25.4609 104.629 26.727C103.766 27.9931 103.191 29.4032 102.903 30.9571C102.673 32.4534 102.557 33.8922 102.557 35.2735C102.557 37.518 102.126 39.446 101.263 41.0575C100.399 42.6114 99.3058 43.8775 97.9821 44.8559C96.7159 45.8343 95.3059 46.5537 93.752 47.0141C92.2556 47.4745 90.8744 47.7047 89.6082 47.7047C85.6947 47.7047 82.5293 46.64 80.1121 44.5106C77.695 42.3236 76.4864 39.5323 76.4864 36.1368C76.4864 34.6404 76.659 32.7124 77.0043 30.3528C77.3496 27.9931 78.0115 25.4896 78.9899 22.8422C79.9683 20.1948 81.3495 17.5474 83.1336 14.9C84.9177 12.2527 87.2486 9.86424 90.1262 7.73481C93.0038 5.60539 96.5145 3.87882 100.658 2.55513C104.802 1.23143 109.751 0.56958 115.507 0.56958Z" fill="url(#paint1_linear_817_317)"/>
<defs>
<linearGradient id="paint0_linear_817_317" x1="78.1606" y1="-51.3319" x2="78.1606" y2="168.998" gradientUnits="userSpaceOnUse">
<stop stop-color="white"/>
<stop offset="1" stop-color="#BCBCBC"/>
</linearGradient>
<linearGradient id="paint1_linear_817_317" x1="78.1606" y1="-51.3319" x2="78.1606" y2="168.998" gradientUnits="userSpaceOnUse">
<stop stop-color="white"/>
<stop offset="1" stop-color="#BCBCBC"/>
</linearGradient>
</defs>
</svg>
