<svg width="40" height="41" viewBox="0 0 40 41" fill="none" xmlns="http://www.w3.org/2000/svg">
<path d="M33.3333 20.5V31.5C33.3333 33.3856 33.3333 34.3284 32.7475 34.9142C32.1617 35.5 31.2189 35.5 29.3333 35.5H10.8333C9.74768 35.5 9.20488 35.5 8.76451 35.3612C7.83102 35.0668 7.0998 34.3356 6.80548 33.4021C6.66663 32.9617 6.66663 32.4189 6.66663 31.3333V31.3333C6.66663 30.2477 6.66663 29.7049 6.80548 29.2645C7.0998 28.3311 7.83102 27.5998 8.76451 27.3055C9.20488 27.1667 9.74769 27.1667 10.8333 27.1667H29.3333C31.2189 27.1667 32.1617 27.1667 32.7475 26.5809C33.3333 25.9951 33.3333 25.0523 33.3333 23.1667V9.5C33.3333 7.61438 33.3333 6.67157 32.7475 6.08579C32.1617 5.5 31.2189 5.5 29.3333 5.5H10.6666C8.78101 5.5 7.8382 5.5 7.25241 6.08579C6.66663 6.67157 6.66663 7.61438 6.66663 9.5V31.3333" stroke="#DDCECE" stroke-width="2"/>
<path d="M15 17.1667L17.6262 19.7929C18.0168 20.1835 18.6499 20.1835 19.0404 19.7929L25 13.8334" stroke="#DDCECE" stroke-width="2" stroke-linecap="round"/>
</svg>
