<svg width="40" height="41" viewBox="0 0 40 41" fill="none" xmlns="http://www.w3.org/2000/svg">
<path d="M20 8.5V32.5" stroke="#DDCECE" stroke-width="2" stroke-linecap="round"/>
<path d="M37 8.5L37 32.5" stroke="#DDCECE" stroke-width="2" stroke-linecap="round"/>
<path d="M3 8.5L3 32.5" stroke="#DDCECE" stroke-width="2" stroke-linecap="round"/>
<path d="M37 32.5C37 32.5 35.1111 28.5 28.5 28.5C21.8889 28.5 20 32.5 20 32.5" stroke="#DDCECE" stroke-width="2" stroke-linecap="round"/>
<path d="M20 32.5C20 32.5 18.1111 28.5 11.5 28.5C4.88889 28.5 3 32.5 3 32.5" stroke="#DDCECE" stroke-width="2" stroke-linecap="round"/>
<path d="M37 8.5C37 8.5 35.1111 4.5 28.5 4.5C21.8889 4.5 20 8.5 20 8.5" stroke="#DDCECE" stroke-width="2" stroke-linecap="round"/>
<path d="M20 8.5C20 8.5 18.1111 4.5 11.5 4.5C4.88889 4.5 3 8.5 3 8.5" stroke="#DDCECE" stroke-width="2" stroke-linecap="round"/>
</svg>
