<svg width="35" height="35" viewBox="0 0 35 35" fill="none" xmlns="http://www.w3.org/2000/svg">
<g clip-path="url(#clip0_1142_2860)">
<path d="M30.625 9.8538L27.7084 12.7705V5.83317H14.5834V13.1248H7.2917V29.1665H27.7084V25.1459L30.625 22.2292V30.6365C30.6247 31.0203 30.4719 31.3883 30.2004 31.6595C29.9288 31.9308 29.5607 32.0832 29.1769 32.0832H5.82316C5.63165 32.0818 5.44227 32.0428 5.26585 31.9683C5.08943 31.8937 4.92941 31.7852 4.79494 31.6488C4.66047 31.5125 4.55418 31.3509 4.48213 31.1735C4.41008 30.996 4.37369 30.8061 4.37504 30.6146V11.6665L13.1294 2.9165H29.1638C29.9688 2.9165 30.625 3.58005 30.625 4.36317V9.8538ZM31.7596 12.8434L33.8217 14.9069L22.4788 26.2498L20.4138 26.2469L20.4167 24.1878L31.7596 12.8448V12.8434Z" fill="#DDCECE"/>
</g>
<defs>
<clipPath id="clip0_1142_2860">
<rect width="35" height="35" fill="white"/>
</clipPath>
</defs>
</svg>
