<svg width="35" height="35" viewBox="0 0 35 35" fill="none" xmlns="http://www.w3.org/2000/svg">
<g clip-path="url(#clip0_1142_2858)">
<path d="M13.125 2.92088V2.9165H29.1638C29.9688 2.9165 30.625 3.58005 30.625 4.36317V30.6365C30.6247 31.0203 30.4719 31.3883 30.2004 31.6595C29.9288 31.9308 29.5607 32.0832 29.1769 32.0832H5.82316C5.63165 32.0818 5.44227 32.0428 5.26585 31.9683C5.08943 31.8937 4.92941 31.7852 4.79494 31.6488C4.66047 31.5125 4.55418 31.3509 4.48213 31.1735C4.41008 30.996 4.37369 30.8061 4.37504 30.6146V11.6665L13.125 2.92088ZM8.50212 11.6665H13.125V7.04359L8.50212 11.6665ZM16.0417 5.83317V13.1248C16.0417 13.5116 15.8881 13.8825 15.6146 14.156C15.3411 14.4295 14.9701 14.5832 14.5834 14.5832H7.2917V29.1665H27.7084V5.83317H16.0417Z" fill="#DDCECE"/>
</g>
<defs>
<clipPath id="clip0_1142_2858">
<rect width="35" height="35" fill="white"/>
</clipPath>
</defs>
</svg>
