<svg width="41" height="41" viewBox="0 0 41 41" fill="none" xmlns="http://www.w3.org/2000/svg">
<circle cx="20.5" cy="20.5002" r="13.6667" fill="#7E869E" fill-opacity="0.25"/>
<path d="M14.5208 18.7917L19.5398 23.8106C19.5983 23.8692 19.6933 23.8692 19.7519 23.8106L33.3125 10.25" stroke="#00BE4C" stroke-width="3"/>
<path d="M33.4171 17.9485C34.0001 20.8999 33.5548 23.962 32.1553 26.6251C30.7558 29.2883 28.4865 31.3918 25.7251 32.5857C22.9637 33.7796 19.8767 33.9918 16.9779 33.187C14.079 32.3822 11.5432 30.609 9.7925 28.1624C8.04175 25.7158 7.18165 22.7435 7.35533 19.74C7.52902 16.7366 8.72601 13.8832 10.7471 11.6548C12.7682 9.4263 15.4915 7.95718 18.4637 7.49191C21.436 7.02664 24.478 7.59327 27.0834 9.09749" stroke="#00BE4C" stroke-linecap="round"/>
</svg>
