<svg width="40" height="41" viewBox="0 0 40 41" fill="none" xmlns="http://www.w3.org/2000/svg">
<path d="M15 12.1666L21.6667 12.1666" stroke="#DDCECE" stroke-width="2" stroke-linecap="round"/>
<path d="M15 25.5L20 25.5" stroke="#DDCECE" stroke-width="2" stroke-linecap="round"/>
<path d="M15 18.8334L25 18.8334" stroke="#DDCECE" stroke-width="2" stroke-linecap="round"/>
<path d="M31.6667 18.8333V11.5C31.6667 8.67157 31.6667 7.25736 30.788 6.37868C29.9093 5.5 28.4951 5.5 25.6667 5.5H14.3334C11.5049 5.5 10.0907 5.5 9.21205 6.37868C8.33337 7.25736 8.33337 8.67157 8.33337 11.5V29.5C8.33337 32.3284 8.33337 33.7426 9.21205 34.6213C10.0907 35.5 11.5049 35.5 14.3334 35.5H20" stroke="#DDCECE" stroke-width="2"/>
<circle cx="29.1667" cy="29.6667" r="4.16667" stroke="#DDCECE" stroke-width="2"/>
<path d="M35 35.5L32.5 33" stroke="#DDCECE" stroke-width="2" stroke-linecap="round"/>
</svg>
