<svg width="35" height="35" viewBox="0 0 35 35" fill="none" xmlns="http://www.w3.org/2000/svg">
<path d="M29.1667 17.4998V15.6665C29.1667 13.7809 29.1667 12.8381 28.5809 12.2523C27.9951 11.6665 27.0523 11.6665 25.1667 11.6665H20.6152C19.7977 11.6665 19.389 11.6665 19.0214 11.5143C18.6539 11.362 18.3649 11.073 17.7868 10.4949L15.7549 8.46308C15.1769 7.88502 14.8879 7.59599 14.5203 7.44374C14.1528 7.2915 13.744 7.2915 12.9265 7.2915H9.83337C7.94776 7.2915 7.00495 7.2915 6.41916 7.87729C5.83337 8.46308 5.83337 9.40588 5.83337 11.2915V23.7082C5.83337 25.5938 5.83337 26.5366 6.41916 27.1224C7.00495 27.7082 7.94776 27.7082 9.83337 27.7082H16.0417" stroke="#DDCECE" stroke-width="3"/>
<circle cx="24.0625" cy="24.0623" r="3.64583" stroke="#DDCECE" stroke-width="3"/>
<path d="M28.4375 28.4375L30.625 30.625" stroke="#DDCECE" stroke-width="3" stroke-linecap="round"/>
</svg>
