<svg width="35" height="35" viewBox="0 0 35 35" fill="none" xmlns="http://www.w3.org/2000/svg">
<path d="M29.1667 17.5V15.6667C29.1667 13.7811 29.1667 12.8383 28.5809 12.2525C27.9951 11.6667 27.0523 11.6667 25.1667 11.6667H20.6152C19.7977 11.6667 19.389 11.6667 19.0214 11.5144C18.6539 11.3622 18.3649 11.0732 17.7868 10.4951L15.7549 8.46326C15.1769 7.8852 14.8879 7.59617 14.5203 7.44393C14.1528 7.29169 13.744 7.29169 12.9265 7.29169H9.83337C7.94776 7.29169 7.00495 7.29169 6.41916 7.87747C5.83337 8.46326 5.83337 9.40607 5.83337 11.2917V23.7084C5.83337 25.594 5.83337 26.5368 6.41916 27.1226C7.00495 27.7084 7.94776 27.7084 9.83337 27.7084H16.0417" stroke="#DDCECE" stroke-width="3"/>
<circle cx="24.0625" cy="24.0625" r="3.64583" stroke="#DDCECE" stroke-width="3"/>
<path d="M28.4375 28.4375L30.625 30.625" stroke="#DDCECE" stroke-width="3" stroke-linecap="round"/>
</svg>
