<svg width="40" height="36" viewBox="0 0 40 36" fill="none" xmlns="http://www.w3.org/2000/svg">
<path d="M36.7033 8.2143H30.53V2.83928C30.53 1.83062 29.639 0.999968 28.5571 0.999968H19.8381H11.1191C10.0372 0.999968 9.1462 1.83062 9.1462 2.83928V8.2143H2.97291C1.89099 8.2143 1 9.04496 1 10.0536V24.8274C1 25.8361 1.89099 26.6667 2.97291 26.6667H9.1462V33.3713C9.1462 34.4393 10.1008 35.3293 11.2464 35.3293H28.4298C29.5754 35.3293 30.53 34.4393 30.53 33.3713V26.7261H36.7033C37.7852 26.7261 38.6762 25.8954 38.6762 24.8868V10.0536C38.6762 9.04496 37.7852 8.2143 36.7033 8.2143ZM10.3554 2.83928C10.3554 2.48328 10.6736 2.18662 11.0555 2.18662H19.7745H28.4934C28.8753 2.18662 29.1935 2.48328 29.1935 2.83928V8.2143H10.2918V2.83928H10.3554ZM29.1935 33.4307C29.1935 33.846 28.8116 34.202 28.3661 34.202H11.1191C10.6736 34.202 10.2918 33.846 10.2918 33.4307V19.4875H29.1935V33.4307ZM37.4033 24.8868C37.4033 25.2428 37.0851 25.5394 36.7033 25.5394H30.53V18.8942C30.53 18.5382 30.2754 18.3008 29.8936 18.3008H9.71899C9.33714 18.3008 9.08257 18.5382 9.08257 18.8942V25.5394H2.90927C2.52741 25.5394 2.20921 25.2428 2.20921 24.8868V10.0536C2.20921 9.69762 2.52741 9.40095 2.90927 9.40095H36.7033C37.0851 9.40095 37.4033 9.69762 37.4033 10.0536V24.8868Z" fill="black" stroke="black"/>
<mask id="path-2-inside-1_1038_535" fill="white">
<path d="M13.3466 22.1325H26.266C26.6478 22.1325 26.9024 21.8951 26.9024 21.5391C26.9024 21.1831 26.6478 20.9458 26.266 20.9458H13.3466C12.9648 20.9458 12.7102 21.1831 12.7102 21.5391C12.7102 21.8951 12.9648 22.1325 13.3466 22.1325Z"/>
</mask>
<path d="M13.3466 22.1325H26.266C26.6478 22.1325 26.9024 21.8951 26.9024 21.5391C26.9024 21.1831 26.6478 20.9458 26.266 20.9458H13.3466C12.9648 20.9458 12.7102 21.1831 12.7102 21.5391C12.7102 21.8951 12.9648 22.1325 13.3466 22.1325Z" fill="black"/>
<path d="M13.3466 24.1325H26.266V20.1325H13.3466V24.1325ZM26.266 24.1325C26.8711 24.1325 27.5474 23.9392 28.0912 23.4322C28.6477 22.9133 28.9024 22.2156 28.9024 21.5391H24.9024C24.9024 21.2186 25.0298 20.8176 25.3636 20.5064C25.6847 20.2071 26.0427 20.1325 26.266 20.1325V24.1325ZM28.9024 21.5391C28.9024 20.8626 28.6477 20.1649 28.0912 19.6461C27.5474 19.1391 26.8711 18.9458 26.266 18.9458V22.9458C26.0427 22.9458 25.6847 22.8712 25.3636 22.5718C25.0298 22.2607 24.9024 21.8596 24.9024 21.5391H28.9024ZM26.266 18.9458H13.3466V22.9458H26.266V18.9458ZM13.3466 18.9458C12.7415 18.9458 12.0652 19.1391 11.5214 19.6461C10.9649 20.1649 10.7102 20.8626 10.7102 21.5391H14.7102C14.7102 21.8596 14.5828 22.2607 14.249 22.5718C13.9279 22.8712 13.5699 22.9458 13.3466 22.9458V18.9458ZM10.7102 21.5391C10.7102 22.2156 10.9649 22.9133 11.5214 23.4322C12.0652 23.9392 12.7415 24.1325 13.3466 24.1325V20.1325C13.5699 20.1325 13.9279 20.2071 14.249 20.5064C14.5828 20.8176 14.7102 21.2186 14.7102 21.5391H10.7102Z" fill="black" mask="url(#path-2-inside-1_1038_535)"/>
<mask id="path-4-inside-2_1038_535" fill="white">
<path d="M13.3466 25.9296H26.266C26.6478 25.9296 26.9024 25.6922 26.9024 25.3362C26.9024 24.9803 26.6478 24.7429 26.266 24.7429H13.3466C12.9648 24.7429 12.7102 24.9803 12.7102 25.3362C12.7102 25.6922 12.9648 25.9296 13.3466 25.9296Z"/>
</mask>
<path d="M13.3466 25.9296H26.266C26.6478 25.9296 26.9024 25.6922 26.9024 25.3362C26.9024 24.9803 26.6478 24.7429 26.266 24.7429H13.3466C12.9648 24.7429 12.7102 24.9803 12.7102 25.3362C12.7102 25.6922 12.9648 25.9296 13.3466 25.9296Z" fill="black"/>
<path d="M13.3466 27.9296H26.266V23.9296H13.3466V27.9296ZM26.266 27.9296C26.8711 27.9296 27.5474 27.7363 28.0912 27.2293C28.6477 26.7104 28.9024 26.0127 28.9024 25.3362H24.9024C24.9024 25.0157 25.0298 24.6147 25.3636 24.3035C25.6847 24.0042 26.0427 23.9296 26.266 23.9296V27.9296ZM28.9024 25.3362C28.9024 24.6597 28.6477 23.9621 28.0912 23.4432C27.5474 22.9362 26.8711 22.7429 26.266 22.7429V26.7429C26.0427 26.7429 25.6847 26.6683 25.3636 26.369C25.0298 26.0578 24.9024 25.6567 24.9024 25.3362H28.9024ZM26.266 22.7429H13.3466V26.7429H26.266V22.7429ZM13.3466 22.7429C12.7415 22.7429 12.0652 22.9362 11.5214 23.4432C10.9649 23.9621 10.7102 24.6597 10.7102 25.3362H14.7102C14.7102 25.6567 14.5828 26.0578 14.249 26.369C13.9279 26.6683 13.5699 26.7429 13.3466 26.7429V22.7429ZM10.7102 25.3362C10.7102 26.0127 10.9649 26.7104 11.5214 27.2293C12.0652 27.7363 12.7415 27.9296 13.3466 27.9296V23.9296C13.5699 23.9296 13.9279 24.0042 14.249 24.3035C14.5828 24.6147 14.7102 25.0157 14.7102 25.3362H10.7102Z" fill="black" mask="url(#path-4-inside-2_1038_535)"/>
<mask id="path-6-inside-3_1038_535" fill="white">
<path d="M13.3466 29.786H26.266C26.6478 29.786 26.9024 29.5487 26.9024 29.1927C26.9024 28.8367 26.6478 28.5994 26.266 28.5994H13.3466C12.9648 28.5994 12.7102 28.8367 12.7102 29.1927C12.7102 29.5487 12.9648 29.786 13.3466 29.786Z"/>
</mask>
<path d="M13.3466 29.786H26.266C26.6478 29.786 26.9024 29.5487 26.9024 29.1927C26.9024 28.8367 26.6478 28.5994 26.266 28.5994H13.3466C12.9648 28.5994 12.7102 28.8367 12.7102 29.1927C12.7102 29.5487 12.9648 29.786 13.3466 29.786Z" fill="black"/>
<path d="M13.3466 31.786H26.266V27.786H13.3466V31.786ZM26.266 31.786C26.8711 31.786 27.5474 31.5927 28.0912 31.0857C28.6477 30.5669 28.9024 29.8692 28.9024 29.1927H24.9024C24.9024 28.8722 25.0298 28.4712 25.3636 28.16C25.6847 27.8606 26.0427 27.786 26.266 27.786V31.786ZM28.9024 29.1927C28.9024 28.5162 28.6477 27.8185 28.0912 27.2997C27.5474 26.7926 26.8711 26.5994 26.266 26.5994V30.5994C26.0427 30.5994 25.6847 30.5248 25.3636 30.2254C25.0298 29.9142 24.9024 29.5132 24.9024 29.1927H28.9024ZM26.266 26.5994H13.3466V30.5994H26.266V26.5994ZM13.3466 26.5994C12.7415 26.5994 12.0652 26.7926 11.5214 27.2997C10.9649 27.8185 10.7102 28.5162 10.7102 29.1927H14.7102C14.7102 29.5132 14.5828 29.9142 14.249 30.2254C13.9279 30.5248 13.5699 30.5994 13.3466 30.5994V26.5994ZM10.7102 29.1927C10.7102 29.8692 10.9649 30.5669 11.5214 31.0857C12.0652 31.5927 12.7415 31.786 13.3466 31.786V27.786C13.5699 27.786 13.9279 27.8606 14.249 28.16C14.5828 28.4712 14.7102 28.8722 14.7102 29.1927H10.7102Z" fill="black" mask="url(#path-6-inside-3_1038_535)"/>
<mask id="path-8-inside-4_1038_535" fill="white">
<path d="M34.794 9.25732H30.7209C30.3391 9.25732 30.0845 9.49465 30.0845 9.85065C30.0845 10.2066 30.3391 10.444 30.7209 10.444H34.794C35.1759 10.444 35.4304 10.2066 35.4304 9.85065C35.4304 9.49465 35.1122 9.25732 34.794 9.25732Z"/>
</mask>
<path d="M34.794 9.25732H30.7209C30.3391 9.25732 30.0845 9.49465 30.0845 9.85065C30.0845 10.2066 30.3391 10.444 30.7209 10.444H34.794C35.1759 10.444 35.4304 10.2066 35.4304 9.85065C35.4304 9.49465 35.1122 9.25732 34.794 9.25732Z" fill="black"/>
<path d="M34.794 7.25732H30.7209V11.2573H34.794V7.25732ZM30.7209 7.25732C30.1158 7.25732 29.4395 7.4506 28.8957 7.95761C28.3392 8.47646 28.0845 9.17415 28.0845 9.85065H32.0845C32.0845 10.1712 31.9571 10.5722 31.6233 10.8834C31.3022 11.1827 30.9442 11.2573 30.7209 11.2573V7.25732ZM28.0845 9.85065C28.0845 10.5271 28.3392 11.2248 28.8957 11.7437C29.4395 12.2507 30.1158 12.444 30.7209 12.444V8.44398C30.9442 8.44398 31.3022 8.51859 31.6233 8.81793C31.9571 9.12912 32.0845 9.53015 32.0845 9.85065H28.0845ZM30.7209 12.444H34.794V8.44398H30.7209V12.444ZM34.794 12.444C35.3991 12.444 36.0754 12.2507 36.6192 11.7437C37.1758 11.2248 37.4304 10.5271 37.4304 9.85065H33.4304C33.4304 9.53015 33.5578 9.12912 33.8916 8.81793C34.2127 8.51859 34.5708 8.44398 34.794 8.44398V12.444ZM37.4304 9.85065C37.4304 8.13789 35.9465 7.25732 34.794 7.25732V11.2573C34.4737 11.2573 34.1658 11.1442 33.9187 10.9293C33.6495 10.695 33.4304 10.312 33.4304 9.85065H37.4304Z" fill="black" mask="url(#path-8-inside-4_1038_535)"/>
<mask id="path-10-inside-5_1038_535" fill="white">
<path d="M5.51862 9.25732H4.05485C3.673 9.25732 3.41843 9.49465 3.41843 9.85065C3.41843 10.2066 3.673 10.444 4.05485 10.444H5.51862C5.90047 10.444 6.15504 10.2066 6.15504 9.85065C6.15504 9.49465 5.90047 9.25732 5.51862 9.25732Z"/>
</mask>
<path d="M5.51862 9.25732H4.05485C3.673 9.25732 3.41843 9.49465 3.41843 9.85065C3.41843 10.2066 3.673 10.444 4.05485 10.444H5.51862C5.90047 10.444 6.15504 10.2066 6.15504 9.85065C6.15504 9.49465 5.90047 9.25732 5.51862 9.25732Z" fill="black"/>
<path d="M5.51862 7.25732H4.05485V11.2573H5.51862V7.25732ZM4.05485 7.25732C3.44973 7.25732 2.77347 7.4506 2.22963 7.95761C1.67309 8.47646 1.41843 9.17415 1.41843 9.85065H5.41843C5.41843 10.1712 5.29105 10.5722 4.95726 10.8834C4.63617 11.1827 4.27812 11.2573 4.05485 11.2573V7.25732ZM1.41843 9.85065C1.41843 10.5271 1.67309 11.2248 2.22963 11.7437C2.77347 12.2507 3.44973 12.444 4.05485 12.444V8.44398C4.27812 8.44398 4.63617 8.51859 4.95726 8.81793C5.29105 9.12912 5.41843 9.53015 5.41843 9.85065H1.41843ZM4.05485 12.444H5.51862V8.44398H4.05485V12.444ZM5.51862 12.444C6.12374 12.444 6.8 12.2507 7.34384 11.7437C7.90038 11.2248 8.15504 10.5271 8.15504 9.85065H4.15504C4.15504 9.53015 4.28242 9.12912 4.61621 8.81793C4.9373 8.51859 5.29535 8.44398 5.51862 8.44398V12.444ZM8.15504 9.85065C8.15504 9.17415 7.90038 8.47646 7.34384 7.95761C6.8 7.4506 6.12374 7.25732 5.51862 7.25732V11.2573C5.29535 11.2573 4.9373 11.1827 4.61621 10.8834C4.28242 10.5722 4.15504 10.1712 4.15504 9.85065H8.15504Z" fill="black" mask="url(#path-10-inside-5_1038_535)"/>
<path d="M7.66417 9.85065C7.66417 9.91402 7.63896 10.021 7.55516 10.1168C7.54473 10.1287 7.5334 10.1405 7.52109 10.1519C7.48874 10.1821 7.45691 10.2037 7.42787 10.2191C7.39884 10.2037 7.367 10.1821 7.33465 10.1519C7.32235 10.1405 7.31102 10.1287 7.30059 10.1168C7.21679 10.021 7.19158 9.91402 7.19158 9.85065C7.19158 9.78728 7.21679 9.68033 7.30059 9.58451C7.31102 9.57259 7.32235 9.56084 7.33465 9.54937C7.367 9.51922 7.39884 9.49763 7.42787 9.48221C7.45691 9.49763 7.48874 9.51922 7.52109 9.54937C7.5334 9.56084 7.54473 9.57259 7.55516 9.58451C7.63896 9.68033 7.66417 9.78728 7.66417 9.85065Z" fill="black" stroke="black" stroke-width="2"/>
</svg>
