<svg width="40" height="41" viewBox="0 0 40 41" fill="none" xmlns="http://www.w3.org/2000/svg">
<path d="M8.33337 21.7659C8.33337 19.503 8.33337 18.3715 8.79081 17.377C9.24825 16.3824 10.1073 15.646 11.8255 14.1733L13.4921 12.7448C16.5977 10.0829 18.1504 8.75195 20 8.75195C21.8497 8.75195 23.4024 10.0829 26.508 12.7448L28.1746 14.1733C29.8928 15.646 30.7518 16.3824 31.2093 17.377C31.6667 18.3715 31.6667 19.503 31.6667 21.7659V28.8332C31.6667 31.9759 31.6667 33.5473 30.6904 34.5236C29.7141 35.4999 28.1427 35.4999 25 35.4999H15C11.8573 35.4999 10.286 35.4999 9.30968 34.5236C8.33337 33.5473 8.33337 31.9759 8.33337 28.8332V21.7659Z" stroke="#DDCECE" stroke-width="2"/>
<path d="M24.1667 35.5V26.5C24.1667 25.9477 23.719 25.5 23.1667 25.5H16.8334C16.2811 25.5 15.8334 25.9477 15.8334 26.5V35.5" stroke="#DDCECE" stroke-width="2" stroke-linecap="round" stroke-linejoin="round"/>
</svg>
