<svg width="51" height="51" viewBox="0 0 51 51" fill="none" xmlns="http://www.w3.org/2000/svg">
<path d="M25.5 29.75L24.0858 31.1642L25.5 32.5784L26.9142 31.1642L25.5 29.75ZM27.5 10.625C27.5 9.52043 26.6046 8.625 25.5 8.625C24.3954 8.625 23.5 9.52043 23.5 10.625L27.5 10.625ZM13.4608 20.5392L24.0858 31.1642L26.9142 28.3358L16.2892 17.7108L13.4608 20.5392ZM26.9142 31.1642L37.5392 20.5392L34.7108 17.7108L24.0858 28.3358L26.9142 31.1642ZM27.5 29.75L27.5 10.625L23.5 10.625L23.5 29.75L27.5 29.75Z" fill="white"/>
<path d="M10.625 34L10.625 36.125C10.625 38.4722 12.5278 40.375 14.875 40.375L36.125 40.375C38.4722 40.375 40.375 38.4722 40.375 36.125V34" stroke="white" stroke-width="4"/>
</svg>
