<svg width="32" height="32" viewBox="0 0 32 32" fill="none" xmlns="http://www.w3.org/2000/svg">
<path d="M5.33331 15.3335C5.33331 14.3907 5.33331 13.9193 5.62621 13.6264C5.9191 13.3335 6.3905 13.3335 7.33331 13.3335H24.6666C25.6095 13.3335 26.0809 13.3335 26.3738 13.6264C26.6666 13.9193 26.6666 14.3907 26.6666 15.3335V24.0502C26.6666 25.0573 26.6666 25.5608 26.4694 25.9714C26.3447 26.2308 26.1656 26.4603 25.9442 26.6441C25.5937 26.9351 25.1052 27.0572 24.1281 27.3015C20.8702 28.1159 19.2412 28.5232 17.5874 28.6549C16.5308 28.739 15.4692 28.739 14.4125 28.6549C12.7588 28.5232 11.1298 28.1159 7.87182 27.3015C6.89481 27.0572 6.4063 26.9351 6.0558 26.6441C5.83438 26.4603 5.65523 26.2308 5.5306 25.9714C5.33331 25.5608 5.33331 25.0573 5.33331 24.0502V15.3335Z" fill="#36AD34" fill-opacity="0.68"/>
<path d="M22 13.3333V12C22 11.071 22 10.6065 21.9384 10.2178C21.5996 8.07837 19.9216 6.40042 17.7822 6.06156C17.3935 6 16.929 6 16 6V6C15.071 6 14.6065 6 14.2178 6.06156C12.0784 6.40042 10.4004 8.07837 10.0616 10.2178C10 10.6065 10 11.071 10 12V13.3333" stroke="#222222"/>
<circle cx="16" cy="20.0002" r="2.66667" fill="#222222"/>
<path d="M16 22V24.5" stroke="#222222" stroke-linecap="round"/>
</svg>
