<svg width="45" height="41" viewBox="0 0 45 41" fill="none" xmlns="http://www.w3.org/2000/svg">
<path d="M41.7483 9.23372H34.7027V3.09918C34.7027 1.948 33.6858 0.999964 32.451 0.999964H22.5H12.549C11.3142 0.999964 10.2973 1.948 10.2973 3.09918V9.23372H3.25169C2.0169 9.23372 1 10.1817 1 11.3329V28.1943C1 29.3455 2.0169 30.2936 3.25169 30.2936H10.2973V37.9455C10.2973 39.1644 11.3868 40.1802 12.6943 40.1802H32.3057C33.6132 40.1802 34.7027 39.1644 34.7027 37.9455V30.3613H41.7483C42.9831 30.3613 44 29.4132 44 28.2621V11.3329C44 10.1817 42.9831 9.23372 41.7483 9.23372ZM11.6774 3.09918C11.6774 2.69288 12.0405 2.35429 12.4764 2.35429H22.4274H32.3784C32.8142 2.35429 33.1774 2.69288 33.1774 3.09918V9.23372H11.6047V3.09918H11.6774ZM33.1774 38.0133C33.1774 38.4873 32.7415 38.8936 32.2331 38.8936H12.549C12.0405 38.8936 11.6047 38.4873 11.6047 38.0133V22.0999H33.1774V38.0133ZM42.5473 28.2621C42.5473 28.6684 42.1841 29.0069 41.7483 29.0069H34.7027V21.4227C34.7027 21.0164 34.4122 20.7455 33.9764 20.7455H10.951C10.5152 20.7455 10.2247 21.0164 10.2247 21.4227V29.0069H3.17905C2.74324 29.0069 2.38007 28.6684 2.38007 28.2621V11.3329C2.38007 10.9266 2.74324 10.588 3.17905 10.588H41.7483C42.1841 10.588 42.5473 10.9266 42.5473 11.3329V28.2621Z" fill="white" stroke="white"/>
<mask id="path-2-inside-1_1054_1681" fill="white">
<path d="M15.0913 25.1185H29.8363C30.2721 25.1185 30.5626 24.8476 30.5626 24.4413C30.5626 24.035 30.2721 23.7642 29.8363 23.7642H15.0913C14.6555 23.7642 14.365 24.035 14.365 24.4413C14.365 24.8476 14.6555 25.1185 15.0913 25.1185Z"/>
</mask>
<path d="M15.0913 25.1185H29.8363C30.2721 25.1185 30.5626 24.8476 30.5626 24.4413C30.5626 24.035 30.2721 23.7642 29.8363 23.7642H15.0913C14.6555 23.7642 14.365 24.035 14.365 24.4413C14.365 24.8476 14.6555 25.1185 15.0913 25.1185Z" fill="white"/>
<path d="M15.0913 27.1185H29.8363V23.1185H15.0913V27.1185ZM29.8363 27.1185C30.4684 27.1185 31.1671 26.9168 31.7267 26.3951C32.299 25.8616 32.5626 25.143 32.5626 24.4413H28.5626C28.5626 24.146 28.681 23.7659 28.9991 23.4694C29.3044 23.1847 29.64 23.1185 29.8363 23.1185V27.1185ZM32.5626 24.4413C32.5626 23.7397 32.299 23.021 31.7267 22.4875C31.1671 21.9658 30.4684 21.7642 29.8363 21.7642V25.7642C29.64 25.7642 29.3044 25.6979 28.9991 25.4133C28.681 25.1167 28.5626 24.7367 28.5626 24.4413H32.5626ZM29.8363 21.7642H15.0913V25.7642H29.8363V21.7642ZM15.0913 21.7642C14.4592 21.7642 13.7605 21.9658 13.2009 22.4875C12.6286 23.021 12.365 23.7397 12.365 24.4413H16.365C16.365 24.7367 16.2466 25.1167 15.9286 25.4133C15.6232 25.6979 15.2876 25.7642 15.0913 25.7642V21.7642ZM12.365 24.4413C12.365 25.143 12.6286 25.8616 13.2009 26.3951C13.7605 26.9168 14.4592 27.1185 15.0913 27.1185V23.1185C15.2876 23.1185 15.6232 23.1847 15.9286 23.4694C16.2466 23.7659 16.365 24.146 16.365 24.4413H12.365Z" fill="white" mask="url(#path-2-inside-1_1054_1681)"/>
<mask id="path-4-inside-2_1054_1681" fill="white">
<path d="M15.0913 29.4522H29.8363C30.2721 29.4522 30.5626 29.1814 30.5626 28.7751C30.5626 28.3688 30.2721 28.0979 29.8363 28.0979H15.0913C14.6555 28.0979 14.365 28.3688 14.365 28.7751C14.365 29.1814 14.6555 29.4522 15.0913 29.4522Z"/>
</mask>
<path d="M15.0913 29.4522H29.8363C30.2721 29.4522 30.5626 29.1814 30.5626 28.7751C30.5626 28.3688 30.2721 28.0979 29.8363 28.0979H15.0913C14.6555 28.0979 14.365 28.3688 14.365 28.7751C14.365 29.1814 14.6555 29.4522 15.0913 29.4522Z" fill="white"/>
<path d="M15.0913 31.4522H29.8363V27.4522H15.0913V31.4522ZM29.8363 31.4522C30.4684 31.4522 31.1671 31.2506 31.7267 30.7289C32.299 30.1954 32.5626 29.4767 32.5626 28.7751H28.5626C28.5626 28.4797 28.681 28.0996 28.9991 27.8031C29.3044 27.5185 29.64 27.4522 29.8363 27.4522V31.4522ZM32.5626 28.7751C32.5626 28.0734 32.299 27.3548 31.7267 26.8212C31.1671 26.2996 30.4684 26.0979 29.8363 26.0979V30.0979C29.64 30.0979 29.3044 30.0317 28.9991 29.747C28.681 29.4505 28.5626 29.0704 28.5626 28.7751H32.5626ZM29.8363 26.0979H15.0913V30.0979H29.8363V26.0979ZM15.0913 26.0979C14.4592 26.0979 13.7605 26.2996 13.2009 26.8212C12.6286 27.3548 12.365 28.0734 12.365 28.7751H16.365C16.365 29.0704 16.2466 29.4505 15.9286 29.747C15.6232 30.0317 15.2876 30.0979 15.0913 30.0979V26.0979ZM12.365 28.7751C12.365 29.4767 12.6286 30.1954 13.2009 30.7289C13.7605 31.2506 14.4592 31.4522 15.0913 31.4522V27.4522C15.2876 27.4522 15.6232 27.5185 15.9286 27.8031C16.2466 28.0996 16.365 28.4797 16.365 28.7751H12.365Z" fill="white" mask="url(#path-4-inside-2_1054_1681)"/>
<mask id="path-6-inside-3_1054_1681" fill="white">
<path d="M15.0913 33.8536H29.8363C30.2721 33.8536 30.5626 33.5827 30.5626 33.1764C30.5626 32.7701 30.2721 32.4993 29.8363 32.4993H15.0913C14.6555 32.4993 14.365 32.7701 14.365 33.1764C14.365 33.5827 14.6555 33.8536 15.0913 33.8536Z"/>
</mask>
<path d="M15.0913 33.8536H29.8363C30.2721 33.8536 30.5626 33.5827 30.5626 33.1764C30.5626 32.7701 30.2721 32.4993 29.8363 32.4993H15.0913C14.6555 32.4993 14.365 32.7701 14.365 33.1764C14.365 33.5827 14.6555 33.8536 15.0913 33.8536Z" fill="white"/>
<path d="M15.0913 35.8536H29.8363V31.8536H15.0913V35.8536ZM29.8363 35.8536C30.4684 35.8536 31.1671 35.6519 31.7267 35.1303C32.299 34.5967 32.5626 33.8781 32.5626 33.1764H28.5626C28.5626 32.8811 28.681 32.501 28.9991 32.2045C29.3044 31.9198 29.64 31.8536 29.8363 31.8536V35.8536ZM32.5626 33.1764C32.5626 32.4748 32.299 31.7561 31.7267 31.2226C31.1671 30.7009 30.4684 30.4993 29.8363 30.4993V34.4993C29.64 34.4993 29.3044 34.433 28.9991 34.1484C28.681 33.8519 28.5626 33.4718 28.5626 33.1764H32.5626ZM29.8363 30.4993H15.0913V34.4993H29.8363V30.4993ZM15.0913 30.4993C14.4592 30.4993 13.7605 30.7009 13.2009 31.2226C12.6286 31.7561 12.365 32.4748 12.365 33.1764H16.365C16.365 33.4718 16.2466 33.8519 15.9286 34.1484C15.6232 34.433 15.2876 34.4993 15.0913 34.4993V30.4993ZM12.365 33.1764C12.365 33.8781 12.6286 34.5967 13.2009 35.1303C13.7605 35.6519 14.4592 35.8536 15.0913 35.8536V31.8536C15.2876 31.8536 15.6232 31.9198 15.9286 32.2045C16.2466 32.501 16.365 32.8811 16.365 33.1764H12.365Z" fill="white" mask="url(#path-6-inside-3_1054_1681)"/>
<mask id="path-8-inside-4_1054_1681" fill="white">
<path d="M39.5691 10.4241H34.9204C34.4846 10.4241 34.1941 10.6949 34.1941 11.1012C34.1941 11.5075 34.4846 11.7784 34.9204 11.7784H39.5691C40.0049 11.7784 40.2954 11.5075 40.2954 11.1012C40.2954 10.6949 39.9323 10.4241 39.5691 10.4241Z"/>
</mask>
<path d="M39.5691 10.4241H34.9204C34.4846 10.4241 34.1941 10.6949 34.1941 11.1012C34.1941 11.5075 34.4846 11.7784 34.9204 11.7784H39.5691C40.0049 11.7784 40.2954 11.5075 40.2954 11.1012C40.2954 10.6949 39.9323 10.4241 39.5691 10.4241Z" fill="white"/>
<path d="M39.5691 8.42407H34.9204V12.4241H39.5691V8.42407ZM34.9204 8.42407C34.2883 8.42407 33.5896 8.62573 33.03 9.14742C32.4577 9.68094 32.1941 10.3996 32.1941 11.1012H36.1941C36.1941 11.3966 36.0757 11.7767 35.7577 12.0732C35.4523 12.3578 35.1167 12.4241 34.9204 12.4241V8.42407ZM32.1941 11.1012C32.1941 11.8029 32.4577 12.5215 33.03 13.0551C33.5896 13.5767 34.2883 13.7784 34.9204 13.7784V9.7784C35.1167 9.7784 35.4523 9.84463 35.7577 10.1293C36.0757 10.4258 36.1941 10.8059 36.1941 11.1012H32.1941ZM34.9204 13.7784H39.5691V9.7784H34.9204V13.7784ZM39.5691 13.7784C40.2012 13.7784 40.8999 13.5767 41.4595 13.0551C42.0318 12.5215 42.2954 11.8029 42.2954 11.1012H38.2954C38.2954 10.8059 38.4138 10.4258 38.7319 10.1293C39.0372 9.84463 39.3728 9.7784 39.5691 9.7784V13.7784ZM42.2954 11.1012C42.2954 9.33817 40.7665 8.42407 39.5691 8.42407V12.4241C39.2712 12.4241 38.9858 12.3194 38.7556 12.1191C38.5033 11.8995 38.2954 11.5375 38.2954 11.1012H42.2954Z" fill="white" mask="url(#path-8-inside-4_1054_1681)"/>
<mask id="path-10-inside-5_1054_1681" fill="white">
<path d="M6.15697 10.4241H4.48636C4.05055 10.4241 3.76001 10.6949 3.76001 11.1012C3.76001 11.5075 4.05055 11.7784 4.48636 11.7784H6.15697C6.59278 11.7784 6.88332 11.5075 6.88332 11.1012C6.88332 10.6949 6.59278 10.4241 6.15697 10.4241Z"/>
</mask>
<path d="M6.15697 10.4241H4.48636C4.05055 10.4241 3.76001 10.6949 3.76001 11.1012C3.76001 11.5075 4.05055 11.7784 4.48636 11.7784H6.15697C6.59278 11.7784 6.88332 11.5075 6.88332 11.1012C6.88332 10.6949 6.59278 10.4241 6.15697 10.4241Z" fill="white"/>
<path d="M6.15697 8.42407H4.48636V12.4241H6.15697V8.42407ZM4.48636 8.42407C3.85426 8.42407 3.15552 8.62573 2.59594 9.14742C2.02367 9.68094 1.76001 10.3996 1.76001 11.1012H5.76001C5.76001 11.3966 5.64162 11.7767 5.32357 12.0732C5.01822 12.3578 4.68265 12.4241 4.48636 12.4241V8.42407ZM1.76001 11.1012C1.76001 11.8029 2.02367 12.5215 2.59594 13.0551C3.15552 13.5767 3.85426 13.7784 4.48636 13.7784V9.7784C4.68265 9.7784 5.01822 9.84463 5.32357 10.1293C5.64162 10.4258 5.76001 10.8059 5.76001 11.1012H1.76001ZM4.48636 13.7784H6.15697V9.7784H4.48636V13.7784ZM6.15697 13.7784C6.78907 13.7784 7.48781 13.5767 8.04739 13.0551C8.61966 12.5215 8.88332 11.8029 8.88332 11.1012H4.88332C4.88332 10.8059 5.00171 10.4258 5.31976 10.1293C5.62511 9.84463 5.96068 9.7784 6.15697 9.7784V13.7784ZM8.88332 11.1012C8.88332 10.3996 8.61966 9.68094 8.04739 9.14742C7.48781 8.62573 6.78907 8.42407 6.15697 8.42407V12.4241C5.96068 12.4241 5.62511 12.3578 5.31976 12.0732C5.00171 11.7767 4.88332 11.3966 4.88332 11.1012H8.88332Z" fill="white" mask="url(#path-10-inside-5_1054_1681)"/>
<path d="M8.46436 11.1012C8.46436 11.1473 8.44148 11.2527 8.34601 11.3417C8.34265 11.3449 8.3393 11.3479 8.33597 11.3508C8.33265 11.3479 8.3293 11.3449 8.32594 11.3417C8.23047 11.2527 8.20759 11.1473 8.20759 11.1012C8.20759 11.0551 8.23047 10.9497 8.32594 10.8607C8.3293 10.8576 8.33265 10.8546 8.33597 10.8517C8.3393 10.8546 8.34265 10.8576 8.34601 10.8607C8.44148 10.9497 8.46436 11.0551 8.46436 11.1012Z" fill="white" stroke="white" stroke-width="2"/>
</svg>
