<svg width="35" height="35" viewBox="0 0 35 35" fill="none" xmlns="http://www.w3.org/2000/svg">
<path d="M32.0854 7.91044H26.7105V2.76181C26.7105 1.79564 25.9348 0.99997 24.9928 0.99997H17.4016H9.8103C8.86832 0.99997 8.09256 1.79564 8.09256 2.76181V7.91044H2.71773C1.77575 7.91044 1 8.70611 1 9.67228V23.8238C1 24.79 1.77575 25.5857 2.71773 25.5857H8.09256V32.0079C8.09256 33.0309 8.92372 33.8834 9.92112 33.8834H24.882C25.8794 33.8834 26.7105 33.0309 26.7105 32.0079V25.6425H32.0854C33.0274 25.6425 33.8031 24.8468 33.8031 23.8807V9.67228C33.8031 8.70611 33.0274 7.91044 32.0854 7.91044ZM9.14537 2.76181C9.14537 2.42081 9.42242 2.13664 9.75488 2.13664H17.3461H24.9374C25.2699 2.13664 25.5469 2.42081 25.5469 2.76181V7.91044H9.08996V2.76181H9.14537ZM25.5469 32.0647C25.5469 32.4625 25.2144 32.8035 24.8266 32.8035H9.8103C9.42242 32.8035 9.08996 32.4625 9.08996 32.0647V18.7088H25.5469V32.0647ZM32.6949 23.8807C32.6949 24.2217 32.4178 24.5058 32.0854 24.5058H26.7105V18.1405C26.7105 17.7995 26.4889 17.5721 26.1564 17.5721H8.59126C8.2588 17.5721 8.03716 17.7995 8.03716 18.1405V24.5058H2.66232C2.32986 24.5058 2.05281 24.2217 2.05281 23.8807V9.67228C2.05281 9.33128 2.32986 9.04711 2.66232 9.04711H32.0854C32.4178 9.04711 32.6949 9.33128 32.6949 9.67228V23.8807Z" fill="white" stroke="white"/>
<mask id="path-2-inside-1_1059_1820" fill="white">
<path d="M11.7497 21.2421H22.998C23.3305 21.2421 23.5521 21.0148 23.5521 20.6738C23.5521 20.3328 23.3305 20.1055 22.998 20.1055H11.7497C11.4172 20.1055 11.1956 20.3328 11.1956 20.6738C11.1956 21.0148 11.4172 21.2421 11.7497 21.2421Z"/>
</mask>
<path d="M11.7497 21.2421H22.998C23.3305 21.2421 23.5521 21.0148 23.5521 20.6738C23.5521 20.3328 23.3305 20.1055 22.998 20.1055H11.7497C11.4172 20.1055 11.1956 20.3328 11.1956 20.6738C11.1956 21.0148 11.4172 21.2421 11.7497 21.2421Z" fill="white"/>
<path d="M11.7497 23.2421H22.998V19.2421H11.7497V23.2421ZM22.998 23.2421C23.6342 23.2421 24.3126 23.0145 24.8318 22.482C25.3465 21.9541 25.5521 21.2838 25.5521 20.6738H21.5521C21.5521 20.4048 21.6469 20.0187 21.9677 19.6897C22.2929 19.3561 22.6943 19.2421 22.998 19.2421V23.2421ZM25.5521 20.6738C25.5521 20.0638 25.3465 19.3935 24.8318 18.8656C24.3126 18.3331 23.6342 18.1055 22.998 18.1055V22.1055C22.6943 22.1055 22.2929 21.9915 21.9677 21.6579C21.6469 21.3289 21.5521 20.9428 21.5521 20.6738H25.5521ZM22.998 18.1055H11.7497V22.1055H22.998V18.1055ZM11.7497 18.1055C11.1135 18.1055 10.435 18.3331 9.91591 18.8656C9.4012 19.3935 9.19556 20.0638 9.19556 20.6738H13.1956C13.1956 20.9428 13.1007 21.3289 12.78 21.6579C12.4548 21.9915 12.0534 22.1055 11.7497 22.1055V18.1055ZM9.19556 20.6738C9.19556 21.2838 9.4012 21.9541 9.91591 22.482C10.435 23.0145 11.1135 23.2421 11.7497 23.2421V19.2421C12.0534 19.2421 12.4548 19.3561 12.78 19.6897C13.1007 20.0187 13.1956 20.4048 13.1956 20.6738H9.19556Z" fill="white" mask="url(#path-2-inside-1_1059_1820)"/>
<mask id="path-4-inside-2_1059_1820" fill="white">
<path d="M11.7497 24.8796H22.998C23.3305 24.8796 23.5521 24.6523 23.5521 24.3113C23.5521 23.9703 23.3305 23.7429 22.998 23.7429H11.7497C11.4172 23.7429 11.1956 23.9703 11.1956 24.3113C11.1956 24.6523 11.4172 24.8796 11.7497 24.8796Z"/>
</mask>
<path d="M11.7497 24.8796H22.998C23.3305 24.8796 23.5521 24.6523 23.5521 24.3113C23.5521 23.9703 23.3305 23.7429 22.998 23.7429H11.7497C11.4172 23.7429 11.1956 23.9703 11.1956 24.3113C11.1956 24.6523 11.4172 24.8796 11.7497 24.8796Z" fill="white"/>
<path d="M11.7497 26.8796H22.998V22.8796H11.7497V26.8796ZM22.998 26.8796C23.6342 26.8796 24.3126 26.6519 24.8318 26.1195C25.3465 25.5915 25.5521 24.9213 25.5521 24.3113H21.5521C21.5521 24.0423 21.6469 23.6561 21.9677 23.3271C22.2929 22.9936 22.6943 22.8796 22.998 22.8796V26.8796ZM25.5521 24.3113C25.5521 23.7013 25.3465 23.031 24.8318 22.503C24.3126 21.9706 23.6342 21.7429 22.998 21.7429V25.7429C22.6943 25.7429 22.2929 25.6289 21.9677 25.2954C21.6469 24.9664 21.5521 24.5803 21.5521 24.3113H25.5521ZM22.998 21.7429H11.7497V25.7429H22.998V21.7429ZM11.7497 21.7429C11.1135 21.7429 10.435 21.9706 9.91591 22.503C9.4012 23.031 9.19556 23.7013 9.19556 24.3113H13.1956C13.1956 24.5803 13.1007 24.9664 12.78 25.2954C12.4548 25.6289 12.0534 25.7429 11.7497 25.7429V21.7429ZM9.19556 24.3113C9.19556 24.9213 9.4012 25.5915 9.91591 26.1195C10.435 26.6519 11.1135 26.8796 11.7497 26.8796V22.8796C12.0534 22.8796 12.4548 22.9936 12.78 23.3271C13.1007 23.6561 13.1956 24.0423 13.1956 24.3113H9.19556Z" fill="white" mask="url(#path-4-inside-2_1059_1820)"/>
<mask id="path-6-inside-3_1059_1820" fill="white">
<path d="M11.7497 28.5737H22.998C23.3305 28.5737 23.5521 28.3463 23.5521 28.0053C23.5521 27.6643 23.3305 27.437 22.998 27.437H11.7497C11.4172 27.437 11.1956 27.6643 11.1956 28.0053C11.1956 28.3463 11.4172 28.5737 11.7497 28.5737Z"/>
</mask>
<path d="M11.7497 28.5737H22.998C23.3305 28.5737 23.5521 28.3463 23.5521 28.0053C23.5521 27.6643 23.3305 27.437 22.998 27.437H11.7497C11.4172 27.437 11.1956 27.6643 11.1956 28.0053C11.1956 28.3463 11.4172 28.5737 11.7497 28.5737Z" fill="white"/>
<path d="M11.7497 30.5737H22.998V26.5737H11.7497V30.5737ZM22.998 30.5737C23.6342 30.5737 24.3126 30.346 24.8318 29.8136C25.3465 29.2856 25.5521 28.6154 25.5521 28.0053H21.5521C21.5521 27.7363 21.6469 27.3502 21.9677 27.0212C22.2929 26.6877 22.6943 26.5737 22.998 26.5737V30.5737ZM25.5521 28.0053C25.5521 27.3953 25.3465 26.7251 24.8318 26.1971C24.3126 25.6647 23.6342 25.437 22.998 25.437V29.437C22.6943 29.437 22.2929 29.323 21.9677 28.9895C21.6469 28.6605 21.5521 28.2743 21.5521 28.0053H25.5521ZM22.998 25.437H11.7497V29.437H22.998V25.437ZM11.7497 25.437C11.1135 25.437 10.435 25.6647 9.91591 26.1971C9.4012 26.7251 9.19556 27.3953 9.19556 28.0053H13.1956C13.1956 28.2743 13.1007 28.6605 12.78 28.9895C12.4548 29.323 12.0534 29.437 11.7497 29.437V25.437ZM9.19556 28.0053C9.19556 28.6154 9.4012 29.2856 9.91591 29.8136C10.435 30.346 11.1135 30.5737 11.7497 30.5737V26.5737C12.0534 26.5737 12.4548 26.6877 12.78 27.0212C13.1007 27.3502 13.1956 27.7363 13.1956 28.0053H9.19556Z" fill="white" mask="url(#path-6-inside-3_1059_1820)"/>
<mask id="path-8-inside-4_1059_1820" fill="white">
<path d="M30.4229 8.90967H26.8766C26.5442 8.90967 26.3225 9.137 26.3225 9.478C26.3225 9.819 26.5442 10.0463 26.8766 10.0463H30.4229C30.7554 10.0463 30.977 9.819 30.977 9.478C30.977 9.137 30.6999 8.90967 30.4229 8.90967Z"/>
</mask>
<path d="M30.4229 8.90967H26.8766C26.5442 8.90967 26.3225 9.137 26.3225 9.478C26.3225 9.819 26.5442 10.0463 26.8766 10.0463H30.4229C30.7554 10.0463 30.977 9.819 30.977 9.478C30.977 9.137 30.6999 8.90967 30.4229 8.90967Z" fill="white"/>
<path d="M30.4229 6.90967H26.8766V10.9097H30.4229V6.90967ZM26.8766 6.90967C26.2404 6.90967 25.562 7.13732 25.0429 7.66979C24.5282 8.19772 24.3225 8.868 24.3225 9.478H28.3225C28.3225 9.74701 28.2277 10.1331 27.9069 10.4621C27.5817 10.7957 27.1804 10.9097 26.8766 10.9097V6.90967ZM24.3225 9.478C24.3225 10.088 24.5282 10.7583 25.0429 11.2862C25.562 11.8187 26.2404 12.0463 26.8766 12.0463V8.04634C27.1804 8.04634 27.5817 8.16032 27.9069 8.49387C28.2277 8.82288 28.3225 9.209 28.3225 9.478H24.3225ZM26.8766 12.0463H30.4229V8.04634H26.8766V12.0463ZM30.4229 12.0463C31.0591 12.0463 31.7375 11.8187 32.2566 11.2862C32.7714 10.7583 32.977 10.088 32.977 9.478H28.977C28.977 9.209 29.0718 8.82288 29.3926 8.49387C29.7178 8.16032 30.1192 8.04634 30.4229 8.04634V12.0463ZM32.977 9.478C32.977 7.95108 31.7214 6.90967 30.4229 6.90967V10.9097C29.6785 10.9097 28.977 10.3229 28.977 9.478H32.977Z" fill="white" mask="url(#path-8-inside-4_1059_1820)"/>
<mask id="path-10-inside-5_1059_1820" fill="white">
<path d="M4.93414 8.90967H3.6597C3.32723 8.90967 3.10559 9.137 3.10559 9.478C3.10559 9.819 3.32723 10.0463 3.6597 10.0463H4.93414C5.26661 10.0463 5.48825 9.819 5.48825 9.478C5.48825 9.137 5.26661 8.90967 4.93414 8.90967Z"/>
</mask>
<path d="M4.93414 8.90967H3.6597C3.32723 8.90967 3.10559 9.137 3.10559 9.478C3.10559 9.819 3.32723 10.0463 3.6597 10.0463H4.93414C5.26661 10.0463 5.48825 9.819 5.48825 9.478C5.48825 9.137 5.26661 8.90967 4.93414 8.90967Z" fill="white"/>
<path d="M4.93414 6.90967H3.6597V10.9097H4.93414V6.90967ZM3.6597 6.90967C3.02349 6.90967 2.34508 7.13732 1.82594 7.66979C1.31123 8.19772 1.10559 8.868 1.10559 9.478H5.10559C5.10559 9.74701 5.01077 10.1331 4.69 10.4621C4.36479 10.7957 3.96344 10.9097 3.6597 10.9097V6.90967ZM1.10559 9.478C1.10559 10.088 1.31123 10.7583 1.82594 11.2862C2.34508 11.8187 3.02349 12.0463 3.6597 12.0463V8.04634C3.96344 8.04634 4.36479 8.16032 4.69 8.49387C5.01077 8.82288 5.10559 9.209 5.10559 9.478H1.10559ZM3.6597 12.0463H4.93414V8.04634H3.6597V12.0463ZM4.93414 12.0463C5.57035 12.0463 6.24876 11.8187 6.7679 11.2862C7.28261 10.7583 7.48825 10.088 7.48825 9.478H3.48825C3.48825 9.209 3.58307 8.82288 3.90385 8.49387C4.22905 8.16032 4.6304 8.04634 4.93414 8.04634V12.0463ZM7.48825 9.478C7.48825 8.868 7.28261 8.19772 6.7679 7.66979C6.24876 7.13732 5.57035 6.90967 4.93414 6.90967V10.9097C4.6304 10.9097 4.22905 10.7957 3.90385 10.4621C3.58307 10.1331 3.48825 9.74701 3.48825 9.478H7.48825Z" fill="white" mask="url(#path-10-inside-5_1059_1820)"/>
<path d="M6.9314 9.478C6.9314 9.52725 6.91169 9.64927 6.79979 9.76405C6.76962 9.79499 6.73825 9.81975 6.70714 9.83943C6.66888 9.86364 6.63102 9.88017 6.59632 9.89108C6.56162 9.88017 6.52376 9.86364 6.4855 9.83943C6.4544 9.81975 6.42302 9.79499 6.39286 9.76405C6.28095 9.64927 6.26125 9.52725 6.26125 9.478C6.26125 9.42875 6.28095 9.30674 6.39286 9.19196C6.42302 9.16102 6.4544 9.13626 6.4855 9.11658C6.52376 9.09237 6.56162 9.07584 6.59632 9.06493C6.63102 9.07584 6.66888 9.09237 6.70714 9.11658C6.73825 9.13626 6.76962 9.16102 6.79979 9.19196C6.91169 9.30674 6.9314 9.42875 6.9314 9.478Z" fill="white" stroke="white" stroke-width="2"/>
</svg>
