<svg width="41" height="40" viewBox="0 0 41 40" fill="none" xmlns="http://www.w3.org/2000/svg">
<path d="M12.1666 11.8867V7.94553C12.1666 5.79964 12.1666 4.72669 12.8562 4.12861C13.5458 3.53052 14.608 3.68226 16.7323 3.98574L30.3485 5.93091C32.8046 6.28178 34.0327 6.45722 34.7663 7.30311C35.5 8.149 35.5 9.38954 35.5 11.8706V28.1297C35.5 30.6108 35.5 31.8513 34.7663 32.6972C34.0327 33.5431 32.8046 33.7185 30.3485 34.0694L16.7323 36.0146C14.608 36.3181 13.5458 36.4698 12.8562 35.8717C12.1666 35.2736 12.1666 34.2007 12.1666 32.0548V28.4434" stroke="#FFFEFE" stroke-width="2"/>
<path d="M27.1666 19.9998L27.9475 19.3751L28.4473 19.9998L27.9475 20.6245L27.1666 19.9998ZM7.16663 20.9998C6.61434 20.9998 6.16663 20.5521 6.16663 19.9998C6.16663 19.4476 6.61434 18.9998 7.16663 18.9998V20.9998ZM21.2808 11.0418L27.9475 19.3751L26.3858 20.6245L19.7191 12.2912L21.2808 11.0418ZM27.9475 20.6245L21.2808 28.9579L19.7191 27.7085L26.3858 19.3751L27.9475 20.6245ZM27.1666 20.9998H7.16663V18.9998H27.1666V20.9998Z" fill="#FFFEFE"/>
</svg>
