<svg width="40" height="41" viewBox="0 0 40 41" fill="none" xmlns="http://www.w3.org/2000/svg">
<path d="M11.6666 12.3866V8.44541C11.6666 6.29952 11.6666 5.22657 12.3562 4.62849C13.0458 4.0304 14.108 4.18214 16.2323 4.48561L29.8485 6.43078C32.3046 6.78166 33.5327 6.9571 34.2663 7.80299C35 8.64888 35 9.88941 35 12.3705V28.6296C35 31.1107 35 32.3512 34.2663 33.1971C33.5327 34.043 32.3046 34.2184 29.8485 34.5693L16.2323 36.5145C14.108 36.8179 13.0458 36.9697 12.3562 36.3716C11.6666 35.7735 11.6666 34.7006 11.6666 32.5547V28.9433" stroke="#FFFEFE" stroke-width="2"/>
<path d="M26.6666 20.5L27.4475 19.8753L27.9473 20.5L27.4475 21.1247L26.6666 20.5ZM6.66663 21.5C6.11434 21.5 5.66663 21.0522 5.66663 20.5C5.66663 19.9477 6.11434 19.5 6.66663 19.5V21.5ZM20.7808 11.5419L27.4475 19.8753L25.8858 21.1247L19.2191 12.7913L20.7808 11.5419ZM27.4475 21.1247L20.7808 29.458L19.2191 28.2086L25.8858 19.8753L27.4475 21.1247ZM26.6666 21.5H6.66663V19.5H26.6666V21.5Z" fill="#FFFEFE"/>
</svg>
