<svg width="35" height="35" viewBox="0 0 35 35" fill="none" xmlns="http://www.w3.org/2000/svg">
<g clip-path="url(#clip0_1142_2862)">
<path d="M27.7083 14.5832H29.1667C29.5534 14.5832 29.9244 14.7368 30.1979 15.0103C30.4714 15.2838 30.625 15.6547 30.625 16.0415V30.6248C30.625 31.0116 30.4714 31.3825 30.1979 31.656C29.9244 31.9295 29.5534 32.0832 29.1667 32.0832H5.83333C5.44656 32.0832 5.07563 31.9295 4.80214 31.656C4.52865 31.3825 4.375 31.0116 4.375 30.6248V16.0415C4.375 15.6547 4.52865 15.2838 4.80214 15.0103C5.07563 14.7368 5.44656 14.5832 5.83333 14.5832H7.29167V13.1248C7.29167 11.7843 7.55571 10.4568 8.06873 9.21828C8.58175 7.97974 9.33369 6.85439 10.2816 5.90646C11.2295 4.95852 12.3549 4.20658 13.5934 3.69357C14.832 3.18055 16.1594 2.9165 17.5 2.9165C18.8406 2.9165 20.168 3.18055 21.4066 3.69357C22.6451 4.20658 23.7705 4.95852 24.7184 5.90646C25.6663 6.85439 26.4183 7.97974 26.9313 9.21828C27.4443 10.4568 27.7083 11.7843 27.7083 13.1248V14.5832ZM7.29167 17.4998V29.1665H27.7083V17.4998H7.29167ZM16.0417 20.4165H18.9583V26.2498H16.0417V20.4165ZM24.7917 14.5832V13.1248C24.7917 11.191 24.0234 9.3363 22.656 7.96885C21.2885 6.6014 19.4339 5.83317 17.5 5.83317C15.5661 5.83317 13.7115 6.6014 12.344 7.96885C10.9766 9.3363 10.2083 11.191 10.2083 13.1248V14.5832H24.7917Z" fill="#DDCECE"/>
</g>
<defs>
<clipPath id="clip0_1142_2862">
<rect width="35" height="35" fill="white"/>
</clipPath>
</defs>
</svg>
