<svg width="35" height="35" viewBox="0 0 35 35" fill="none" xmlns="http://www.w3.org/2000/svg">
<g clip-path="url(#clip0_1142_2852)">
<path d="M5.83337 32.0835C5.83337 28.9893 7.06254 26.0218 9.25046 23.8339C11.4384 21.646 14.4058 20.4168 17.5 20.4168C20.5942 20.4168 23.5617 21.646 25.7496 23.8339C27.9375 26.0218 29.1667 28.9893 29.1667 32.0835H26.25C26.25 29.7629 25.3282 27.5373 23.6872 25.8963C22.0463 24.2554 19.8207 23.3335 17.5 23.3335C15.1794 23.3335 12.9538 24.2554 11.3129 25.8963C9.67191 27.5373 8.75004 29.7629 8.75004 32.0835H5.83337ZM17.5 18.9585C12.6657 18.9585 8.75004 15.0429 8.75004 10.2085C8.75004 5.37412 12.6657 1.4585 17.5 1.4585C22.3344 1.4585 26.25 5.37412 26.25 10.2085C26.25 15.0429 22.3344 18.9585 17.5 18.9585ZM17.5 16.0418C20.723 16.0418 23.3334 13.4314 23.3334 10.2085C23.3334 6.98558 20.723 4.37516 17.5 4.37516C14.2771 4.37516 11.6667 6.98558 11.6667 10.2085C11.6667 13.4314 14.2771 16.0418 17.5 16.0418Z" fill="#DDCECE"/>
</g>
<defs>
<clipPath id="clip0_1142_2852">
<rect width="35" height="35" fill="white"/>
</clipPath>
</defs>
</svg>
