<svg width="34" height="34" viewBox="0 0 34 34" fill="none" xmlns="http://www.w3.org/2000/svg">
<g clip-path="url(#clip0_1038_517)">
<path fill-rule="evenodd" clip-rule="evenodd" d="M8.5 2.96825V31.0317C8.5 32.6711 9.80817 34 11.4219 34H31.0781C32.6918 34 34 32.6711 34 31.0317V7.81072C34 7.01783 33.6877 6.25791 33.1328 5.70034L28.3133 0.857876C27.7663 0.308263 27.028 0 26.2586 0H11.4219C9.80817 0 8.5 1.32893 8.5 2.96825ZM10.3594 31.0317V2.96825C10.3594 2.37214 10.8351 1.88889 11.4219 1.88889H25.8984V8.36508C25.8984 9.4828 26.7904 10.3889 27.8906 10.3889H32.1406V31.0317C32.1406 31.6279 31.6649 32.1111 31.0781 32.1111H11.4219C10.8351 32.1111 10.3594 31.6279 10.3594 31.0317ZM32.1406 8.5V7.81072C32.1406 7.5224 32.0271 7.24606 31.8253 7.04331L27.7578 2.95645V8.36508C27.7578 8.43959 27.8173 8.5 27.8906 8.5H32.1406Z" fill="#202020"/>
<path fill-rule="evenodd" clip-rule="evenodd" d="M21.7812 13.9453C21.7812 13.4319 22.1975 13.0156 22.7109 13.0156H28.8203C29.3338 13.0156 29.75 13.4319 29.75 13.9453C29.75 14.4588 29.3338 14.875 28.8203 14.875H22.7109C22.1975 14.875 21.7812 14.4588 21.7812 13.9453Z" fill="#69C997"/>
<path fill-rule="evenodd" clip-rule="evenodd" d="M21.7812 18.1953C21.7812 17.6819 22.1975 17.2656 22.7109 17.2656H28.8203C29.3338 17.2656 29.75 17.6819 29.75 18.1953C29.75 18.7088 29.3338 19.125 28.8203 19.125H22.7109C22.1975 19.125 21.7812 18.7088 21.7812 18.1953Z" fill="#54AD7D"/>
<path fill-rule="evenodd" clip-rule="evenodd" d="M21.7812 22.4453C21.7812 21.9319 22.1975 21.5156 22.7109 21.5156H28.8203C29.3338 21.5156 29.75 21.9319 29.75 22.4453C29.75 22.9588 29.3338 23.375 28.8203 23.375H22.7109C22.1975 23.375 21.7812 22.9588 21.7812 22.4453Z" fill="#2B593D"/>
<path d="M0 9.82812C0 8.94792 0.713546 8.23438 1.59375 8.23438H17.5312C18.4115 8.23438 19.125 8.94792 19.125 9.82812V25.7656C19.125 26.6458 18.4115 27.3594 17.5312 27.3594H1.59375C0.713546 27.3594 0 26.6458 0 25.7656V9.82812Z" fill="#3D8A58"/>
<path d="M5.3125 23.1322L8.29767 17.5759L5.5885 12.4844H7.65125L9.40167 15.9053L11.1158 12.4844H13.1567L10.4476 17.6558L13.4327 23.1322H11.3046L9.36536 19.4498L7.42609 23.1322H5.3125Z" fill="white"/>
</g>
<defs>
<clipPath id="clip0_1038_517">
<rect width="34" height="34" fill="white"/>
</clipPath>
</defs>
</svg>
